<svg xmlns="http://www.w3.org/2000/svg" xmlns:xlink="http://www.w3.org/1999/xlink" viewBox="0 0 415.63 440.63"><defs><style>.cls-1{isolation:isolate;}.cls-2{fill:url(#linear-gradient);}.cls-3{fill:url(#linear-gradient-2);}.cls-4,.cls-5{mix-blend-mode:multiply;}.cls-4{fill:url(#linear-gradient-3);}.cls-5{fill:url(#linear-gradient-4);}</style><linearGradient id="linear-gradient" x1="473.83" y1="391.55" x2="5.07" y2="58.73" gradientUnits="userSpaceOnUse"><stop offset="0" stop-color="#34dfa7"/><stop offset="0.45" stop-color="#25bfb1"/><stop offset="1" stop-color="#4beab1"/></linearGradient><linearGradient id="linear-gradient-2" x1="539.62" y1="365.89" x2="361.49" y2="186.2" gradientUnits="userSpaceOnUse"><stop offset="0" stop-color="#29cfc0"/><stop offset="0.45" stop-color="#25bfb1"/><stop offset="1" stop-color="#4beab1"/></linearGradient><linearGradient id="linear-gradient-3" x1="152.37" y1="353.84" x2="364.44" y2="353.84" gradientUnits="userSpaceOnUse"><stop offset="0" stop-color="#34dfa7"/><stop offset="1" stop-color="#fff"/></linearGradient><linearGradient id="linear-gradient-4" x1="152.37" y1="143.58" x2="364.44" y2="143.58" gradientUnits="userSpaceOnUse"><stop offset="0" stop-color="#29cfc0"/><stop offset="1" stop-color="#fff"/></linearGradient></defs><g class="cls-1"><g id="Layer_1" data-name="Layer 1"><path class="cls-2" d="M303.47,324.37a81.53,81.53,0,0,1-34.12,5.94c-41.42-1.65-75.61-35-78.17-76.4a81.72,81.72,0,0,1,112.56-80.76,54.08,54.08,0,0,0,48.56-4.09l93.39-56.68A219.88,219.88,0,0,0,262.56,28.62C146.86,33.81,54,129.78,52.39,245.58,50.68,368.69,150,469,272.68,469a219.87,219.87,0,0,0,173-84l-93.4-56.68A54.54,54.54,0,0,0,303.47,324.37Z" transform="translate(-52.37 -28.39)"/><path class="cls-3" d="M437.2,157.43,315.36,231.37a20.28,20.28,0,0,0,0,34.67L437.2,340A20.28,20.28,0,0,0,468,322.65V174.76A20.28,20.28,0,0,0,437.2,157.43Z" transform="translate(-52.37 -28.39)"/><path class="cls-4" d="M445.69,385A220.24,220.24,0,0,1,357,452.24c-92.54-19-162.61-99.43-165.68-196.8,3.28,40.65,37.12,73.25,78,74.87a81.15,81.15,0,0,0,34.12-5.93,54.58,54.58,0,0,1,48.84,4Z" transform="translate(-52.37 -28.39)"/><path class="cls-5" d="M445.69,112.39,352.3,169a54,54,0,0,1-48.56,4.1A81.73,81.73,0,0,0,191.28,242c3.07-97.37,73.15-177.83,165.65-196.87A220.77,220.77,0,0,1,445.69,112.39Z" transform="translate(-52.37 -28.39)"/></g></g></svg>