<?xml version="1.0" encoding="utf-8"?>
<!-- Generator: Adobe Illustrator 24.2.3, SVG Export Plug-In . SVG Version: 6.00 Build 0)  -->
<svg version="1.1" id="Layer_1" xmlns="http://www.w3.org/2000/svg" xmlns:xlink="http://www.w3.org/1999/xlink" x="0px" y="0px"
	 viewBox="0 0 490.1 189.4" style="enable-background:new 0 0 490.1 189.4;" xml:space="preserve">
<style type="text/css">
	.st0{fill:url(#SVGID_1_);}
	.st1{fill:url(#SVGID_2_);}
	.st2{fill:url(#SVGID_3_);}
	.st3{fill:url(#SVGID_4_);}
	.st4{enable-background:new    ;}
	.st5{fill:#25BFB1;}
	.st6{fill:#49EAA9;}
</style>
<g>
	<g id="Layer_1_1_">
		
			<linearGradient id="SVGID_1_" gradientUnits="userSpaceOnUse" x1="189.5173" y1="-111.0756" x2="-11.9427" y2="31.9644" gradientTransform="matrix(1 0 0 -1 -8.37 44.98)">
			<stop  offset="0" style="stop-color:#34DFA7"/>
			<stop  offset="0.45" style="stop-color:#25BFB1"/>
			<stop  offset="1" style="stop-color:#4BEAB1"/>
		</linearGradient>
		<path class="st0" d="M107.9,127.2c-18,7.3-38.4-1.4-45.7-19.3c-7.3-18,1.4-38.4,19.3-45.7c8.5-3.5,18-3.4,26.5,0
			c6.8,2.8,14.6,2.1,20.9-1.8L169,36.1c-18.9-24-48.2-37.4-78.7-36C40.6,2.3,0.7,43.6,0,93.3c-0.7,52.3,41.1,95.3,93.3,96
			c29.5,0.4,57.4-12.9,75.7-36l-40.1-24.4C122.6,125.1,114.8,124.4,107.9,127.2z"/>
		
			<linearGradient id="SVGID_2_" gradientUnits="userSpaceOnUse" x1="217.7822" y1="-100.0678" x2="141.2222" y2="-22.8378" gradientTransform="matrix(1 0 0 -1 -8.37 44.98)">
			<stop  offset="0" style="stop-color:#29CFC0"/>
			<stop  offset="0.45" style="stop-color:#25BFB1"/>
			<stop  offset="1" style="stop-color:#4BEAB1"/>
		</linearGradient>
		<path class="st1" d="M165.4,55.5L113,87.2c-4.1,2.5-5.4,7.9-2.9,12c0.7,1.2,1.7,2.2,2.9,2.9l52.4,31.8c4.1,2.5,9.5,1.2,12-2.9
			c0.8-1.4,1.3-2.9,1.3-4.5V62.9c0-4.8-3.9-8.7-8.7-8.7C168.3,54.2,166.8,54.6,165.4,55.5z"/>
		
			<linearGradient id="SVGID_3_" gradientUnits="userSpaceOnUse" x1="51.35" y1="-94.89" x2="142.49" y2="-94.89" gradientTransform="matrix(1 0 0 -1 -8.37 44.98)">
			<stop  offset="0" style="stop-color:#34DFA7"/>
			<stop  offset="1" style="stop-color:#FFFFFF"/>
		</linearGradient>
		<path class="st2" d="M169,153.3c-10,12.7-23.1,22.7-38.1,28.9c-40.4-8.3-69.9-43.3-71.2-84.6c1.5,17.6,15.9,31.4,33.5,32.2
			c5,0.2,10-0.7,14.7-2.5c6.9-2.8,14.7-2.1,21,1.7L169,153.3z"/>
		
			<linearGradient id="SVGID_4_" gradientUnits="userSpaceOnUse" x1="51.35" y1="-4.525" x2="142.49" y2="-4.525" gradientTransform="matrix(1 0 0 -1 -8.37 44.98)">
			<stop  offset="0" style="stop-color:#29CFC0"/>
			<stop  offset="1" style="stop-color:#FFFFFF"/>
		</linearGradient>
		<path class="st3" d="M169,36.1l-40.1,24.4c-6.3,3.9-14,4.5-20.9,1.8c-17.9-7.4-38.4,1.2-45.8,19.1c-1.4,3.3-2.2,6.9-2.5,10.5
			C61,50.5,90.5,15.6,130.9,7.2C145.9,13.4,159,23.4,169,36.1z"/>
		<g class="st4">
			<path class="st5" d="M240.4,87c-1.5,0.8-3.2,1.4-4.9,1.8c-1.7,0.4-3.5,0.6-5.4,0.6c-6.7,0-11.7-2.2-15.2-6.6
				c-3.5-4.4-5.3-10.7-5.3-19c0-8.3,1.8-14.7,5.3-19.1c3.5-4.4,8.6-6.6,15.2-6.6c1.9,0,3.7,0.2,5.4,0.6c1.7,0.4,3.3,1,4.8,1.8v10.8
				c-1.7-1.5-3.3-2.7-4.9-3.4s-3.2-1.1-4.9-1.1c-3.6,0-6.3,1.4-8.1,4.2c-1.8,2.8-2.7,7-2.7,12.6c0,5.6,0.9,9.8,2.7,12.6
				c1.8,2.8,4.5,4.3,8.1,4.3c1.7,0,3.3-0.4,4.9-1.1s3.2-1.8,4.9-3.4V87z"/>
			<path class="st5" d="M248.5,63.8c0-8.4,1.5-14.8,4.4-19.2c2.9-4.3,7.2-6.5,12.9-6.5c5.7,0,10.1,2.2,13,6.5
				c2.9,4.3,4.4,10.7,4.4,19.2c0,8.4-1.5,14.8-4.4,19.1c-2.9,4.3-7.2,6.5-13,6.5c-5.7,0-10-2.2-12.9-6.5
				C249.9,78.6,248.5,72.2,248.5,63.8z M265.8,46.9c-2.5,0-4.3,1.3-5.5,4c-1.1,2.7-1.7,7-1.7,12.9c0,5.9,0.6,10.2,1.7,12.8
				c1.1,2.7,3,4,5.5,4c2.5,0,4.3-1.3,5.5-4c1.1-2.7,1.7-6.9,1.7-12.8c0-5.9-0.6-10.2-1.7-12.9C270.1,48.2,268.3,46.9,265.8,46.9z"/>
			<path class="st5" d="M306.6,80.3l8.7-41.2h9.8l-11.7,49.4h-13.5L288.1,39h9.8L306.6,80.3z"/>
			<path class="st5" d="M332.7,47.6V39h29.4v8.6h-9.8v32.2h9.8v8.6h-29.4v-8.6h9.8V47.6H332.7z"/>
			<path class="st5" d="M372.3,39h10.5c8.1,0,13.9,1.9,17.4,5.8c3.5,3.8,5.3,10.1,5.3,18.9c0,8.8-1.8,15.1-5.3,18.9
				c-3.6,3.9-9.4,5.8-17.4,5.8h-10.5V39z M382.1,47.8v31.8h2.6c3.8,0,6.6-1.2,8.2-3.6c1.6-2.4,2.4-6.5,2.4-12.3
				c0-5.8-0.8-9.8-2.4-12.2c-1.6-2.4-4.4-3.6-8.2-3.6H382.1z"/>
			<path class="st5" d="M414.8,79.8h10.9V47.8l-10.2,2.5v-8.8l10.2-2.4h9.4v40.8h10.9v8.6h-31.3V79.8z"/>
			<path class="st5" d="M456,87.8v-8.9c1.7,1,3.4,1.8,5,2.2s3.1,0.7,4.6,0.7c3.5,0,6.2-1.2,8-3.5c1.8-2.3,2.8-5.9,2.9-10.5
				c-1,1.4-2.4,2.5-4,3.2c-1.6,0.7-3.5,1.1-5.7,1.1c-4.4,0-7.9-1.4-10.3-4.2c-2.4-2.8-3.6-6.8-3.6-12c0-5.5,1.4-9.8,4.1-12.8
				c2.7-3,6.5-4.5,11.5-4.5c6,0,10.4,2,13.1,6c2.7,4,4.1,10.5,4.1,19.5c0,8.5-1.7,14.9-5,19.2c-3.3,4.3-8.3,6.4-15,6.4
				c-1.5,0-3.1-0.2-4.8-0.5S457.7,88.4,456,87.8z M468.8,63.9c2.1,0,3.7-0.8,4.8-2.3c1.1-1.5,1.7-3.8,1.7-6.7c0-2.9-0.6-5.1-1.7-6.6
				c-1.1-1.5-2.7-2.3-4.8-2.3c-2.1,0-3.7,0.8-4.9,2.3c-1.1,1.5-1.7,3.7-1.7,6.6s0.6,5.1,1.7,6.6C465.1,63.1,466.7,63.9,468.8,63.9z"
				/>
		</g>
		<g class="st4">
			<path class="st6" d="M229.9,161.3h-9.8v-40.8h-12.5v-8.5h34.8v8.5h-12.5V161.3z"/>
			<path class="st6" d="M272.1,138c1,0.2,1.8,0.7,2.5,1.4c0.7,0.7,1.6,2.1,2.6,4.2l8.9,17.8h-10.7l-6-12.5c-0.2-0.4-0.4-0.8-0.7-1.5
				c-1.7-3.7-3.8-5.6-6.2-5.6h-3.1v19.5h-9.8v-49.4h14.1c6.4,0,10.9,1.1,13.7,3.4s4.2,5.9,4.2,11c0,3.4-0.8,6.1-2.5,8.1
				C277.6,136.4,275.2,137.6,272.1,138z M259.6,120.2v13.5h4.6c2.7,0,4.6-0.5,5.7-1.6c1.2-1,1.7-2.8,1.7-5.2c0-2.4-0.6-4.1-1.7-5.2
				s-3.1-1.6-5.8-1.6H259.6z"/>
			<path class="st6" d="M300.6,111.9h11.9l13.3,49.4h-9.8l-3-12.2H300l-3,12.2h-9.8L300.6,111.9z M306.6,120.9l-4.6,20.2h9.2
				L306.6,120.9z"/>
			<path class="st6" d="M362.7,159.9c-1.5,0.8-3.2,1.4-4.9,1.8c-1.7,0.4-3.5,0.6-5.4,0.6c-6.7,0-11.7-2.2-15.2-6.6
				c-3.5-4.4-5.3-10.7-5.3-19c0-8.3,1.8-14.7,5.3-19.1s8.6-6.6,15.2-6.6c1.9,0,3.7,0.2,5.4,0.6c1.7,0.4,3.3,1,4.8,1.8v10.8
				c-1.7-1.5-3.3-2.7-4.9-3.4c-1.6-0.7-3.2-1.1-4.9-1.1c-3.6,0-6.3,1.4-8.1,4.2c-1.8,2.8-2.7,7-2.7,12.6c0,5.6,0.9,9.8,2.7,12.6
				c1.8,2.8,4.5,4.3,8.1,4.3c1.7,0,3.3-0.4,4.9-1.1c1.6-0.7,3.2-1.8,4.9-3.4V159.9z"/>
			<path class="st6" d="M371.6,111.9h9.8v19.5l15.3-19.5h11l-15.6,19.4l16.1,29.9h-10.8l-11.7-22.2l-4.3,5.5v16.7h-9.8V111.9z"/>
			<path class="st6" d="M444.9,161.3h-30.8v-49.4h30.8v8.6h-21v10.7h19v8.6h-19v12.9h21V161.3z"/>
			<path class="st6" d="M476,138c1,0.2,1.8,0.7,2.5,1.4c0.7,0.7,1.6,2.1,2.6,4.2l8.9,17.8h-10.7l-6-12.5c-0.2-0.4-0.4-0.8-0.7-1.5
				c-1.7-3.7-3.8-5.6-6.2-5.6h-3.1v19.5h-9.8v-49.4h14.1c6.4,0,10.9,1.1,13.7,3.4c2.8,2.2,4.2,5.9,4.2,11c0,3.4-0.8,6.1-2.5,8.1
				C481.5,136.4,479.1,137.6,476,138z M463.5,120.2v13.5h4.6c2.7,0,4.6-0.5,5.7-1.6c1.2-1,1.7-2.8,1.7-5.2c0-2.4-0.6-4.1-1.7-5.2
				s-3.1-1.6-5.8-1.6H463.5z"/>
		</g>
	</g>
</g>
</svg>
