<svg id="Layer_1" data-name="Layer 1" xmlns="http://www.w3.org/2000/svg" viewBox="0 0 128 128"><defs><style>.cls-1,.cls-2,.cls-3,.cls-4,.cls-5,.cls-6,.cls-7,.cls-8{fill:#25bfb1;}.cls-2{opacity:0.2;}.cls-3{opacity:0.4;}.cls-4{opacity:0.5;}.cls-5{opacity:0.6;}.cls-6{opacity:0.7;}.cls-7{opacity:0.8;}.cls-8{opacity:0.85;}</style></defs><path class="cls-1" d="M64,35.65a9.41,9.41,0,0,1-9.41-9.41v-17a9.41,9.41,0,1,1,18.82,0v17A9.41,9.41,0,0,1,64,35.65Z" transform="translate(0 0.14)"/><path class="cls-2" d="M90.62,46.65A9.41,9.41,0,0,1,84,30.59l12-12a9.41,9.41,0,0,1,13.31,13.31l-12,12A9.38,9.38,0,0,1,90.62,46.65Z" transform="translate(0 0.14)"/><path class="cls-3" d="M118.59,73.27H101.65a9.41,9.41,0,0,1,0-18.82h16.94a9.41,9.41,0,0,1,0,18.82Z" transform="translate(0 0.14)"/><path class="cls-4" d="M102.6,111.87a9.38,9.38,0,0,1-6.66-2.75l-12-12A9.41,9.41,0,0,1,97.28,83.83l12,12a9.41,9.41,0,0,1-6.65,16.06Z" transform="translate(0 0.14)"/><path class="cls-5" d="M64,127.86a9.41,9.41,0,0,1-9.41-9.41V101.51a9.41,9.41,0,1,1,18.82,0v16.94A9.41,9.41,0,0,1,64,127.86Z" transform="translate(0 0.14)"/><path class="cls-6" d="M25.4,111.87a9.41,9.41,0,0,1-6.65-16.06l12-12A9.41,9.41,0,0,1,44.05,97.12l-12,12A9.38,9.38,0,0,1,25.4,111.87Z" transform="translate(0 0.14)"/><path class="cls-7" d="M26.35,73.27H9.41a9.41,9.41,0,0,1,0-18.82H26.35a9.41,9.41,0,0,1,0,18.82Z" transform="translate(0 0.14)"/><path class="cls-8" d="M37.38,46.65a9.38,9.38,0,0,1-6.66-2.75l-12-12A9.41,9.41,0,0,1,32.06,18.61l12,12a9.41,9.41,0,0,1-6.65,16.06Z" transform="translate(0 0.14)"/></svg>